<?xml version="1.0" encoding="UTF-8"?>
<!DOCTYPE svg PUBLIC "-//W3C//DTD SVG 1.1//EN" "http://www.w3.org/Graphics/SVG/1.1/DTD/svg11.dtd">
<!-- Creator: CorelDRAW 2020 (64-Bit) -->
<svg xmlns="http://www.w3.org/2000/svg" xml:space="preserve" width="3.33333in" height="3.33333in" version="1.1" style="shape-rendering:geometricPrecision; text-rendering:geometricPrecision; image-rendering:optimizeQuality; fill-rule:evenodd; clip-rule:evenodd"
viewBox="0 0 3333.33 3333.33"
 xmlns:xlink="http://www.w3.org/1999/xlink"
 xmlns:xodm="http://www.corel.com/coreldraw/odm/2003">
 <defs>
  <style type="text/css">
   <![CDATA[
    .fil0 {fill:none}
    .fil1 {fill:black}
   ]]>
  </style>
 </defs>
 <g id="Layer_x0020_1">
  <metadata id="CorelCorpID_0Corel-Layer"/>
  <rect class="fil0" x="-0.01" y="0.01" width="3333.33" height="3333.32"/>
  <path class="fil1" d="M413.05 2097.2c15.18,4.23 18.81,-0.79 28.36,32.2l3.42 14.6c14.57,-47 31.24,-34.3 72.17,-31.49l-11.04 38.67 -24.58 -23.05c-6.17,23.98 -20.92,56.48 -41.79,67.25l53.54 27.12c-66.5,14.3 -2.69,36.24 -98.14,44.81 -94.87,6.6 -193.08,36.65 -281.46,69.35 -15.4,5.69 -29.17,11.09 -45.18,17.72 -10.1,4.16 -13.62,4.42 -21.38,10.44 -15.41,11.95 -6.7,0.76 -14.49,18.06 36.19,14.28 325.93,-75.95 397.59,-81.89 18.67,23.48 38.5,52.7 59.52,73.75 22.81,22.86 46.29,44.93 57.3,83.5 -78.96,10.85 -171.98,55.91 -241.74,91.5 -34.26,17.46 -53.88,26.87 -58.3,67.54 42,-5.54 23.02,-3.89 49.94,-26.83 29.44,-25.08 113.33,-56.35 151.5,-69.63 136.47,-47.47 115.31,-60.54 191.1,33.07 69.47,85.83 147.67,153.72 221.16,235.52 30.47,33.92 59.7,38.34 112.35,41.85 -7.91,-34.76 -43.52,-78.26 -63.1,-102.46l-195.8 -286.5c45.23,-8.6 78.59,-7.55 89.59,-48.19 -29.13,-19.26 -90.3,0.09 -130.17,7.55 -17.51,-39.92 -45.29,-62.83 -59.65,-107.77 45.44,-6.19 141.79,8.12 170.95,-10.43 4.94,-80.63 -156.76,-21.89 -202.08,-42.07 -33.04,-31.11 -60.95,-60.39 -30.98,-121.34 32.65,0.54 75.1,14.04 108.7,22.2l84.97 17.46c9,0.05 21.91,5.07 31.08,-8.75 14.1,-39.72 -46.35,-41.13 -84.13,-50.6 -39.63,-9.93 -85.57,-25.37 -121.16,-30.29 28.26,-104.15 76.48,-219.76 103.27,-309.51 6.54,-21.93 8.34,-43.57 14.66,-66.2 17.62,-62.9 39.36,-51.17 58.38,-89.99l5.19 -13.24c0.68,-1.67 1.37,-4.78 2.44,-6.97 13.15,43.78 70.21,53.06 109.65,48.87 10.1,-46.22 -21.74,-65.17 -44.95,-100.07 -59.86,-90.02 -134.09,-143.93 -211.5,-245.85 -46.22,-60.83 -84.42,-118.63 -129.46,-176.4 -23.73,-30.46 -128.86,-145.04 -131.3,-164.2 23.21,-19.07 26.44,-2.79 65.03,0.31 160.99,12.94 97.5,7.26 260.27,39.59l452.23 35.35c122.57,1.02 132.35,135.88 183.33,229 16.91,30.87 17.33,41.06 27.25,78.2 13.02,48.8 19.31,126.07 67.7,146.37l43.73 -245.13c1.14,-41.36 31.24,-213.36 43.04,-247.09 19,-15.39 44.28,-21.84 73.76,-22.51 2.85,86.91 23.31,518.41 64.31,567.14 47.35,-15.7 64.71,-69.28 85.11,-114.89 23.49,-52.51 48.6,-83.18 68.22,-134 34.17,-88.53 64.92,-227 88.97,-325.24l71.31 9.13c14.69,122.82 -5.72,485.32 49.95,558.13 37.24,-4.02 60.79,-61.35 79.37,-97.06 37.22,-71.44 88.83,-162.17 115.57,-239.45 27.65,-79.96 20.28,-175.45 117.29,-121.55 59.08,32.83 19.23,16.8 43.93,57.24 57.51,-11.33 113.46,-36.46 167.09,-65.93 43.25,-23.78 38.71,-43.46 92.27,-75.16 23.12,-13.69 28.73,-21.88 51.51,-36.17 41.16,-25.8 54.28,-18.41 99.01,-51.19 40.4,-29.62 92.96,-44.82 134.31,-72.19l72.75 -54.09c15.02,-11.5 168.37,-115.68 194.83,-111.8 20.19,2.94 4.52,-3.11 16.74,7.88 11.17,29.63 -55.85,213.67 -69.07,248.12 -15.11,39.35 -27.25,93.07 -42.54,128.93 -18.81,44.13 -31.58,38.42 -53.11,115.87 -37.35,134.35 -43.26,104.07 -70.35,174.01 -23.68,61.09 -134.28,265.27 -117.85,304.91 4.36,10.51 46.77,44.19 58.63,42.47 26.74,-16.55 41.92,-42.18 61.93,-66.39 1.17,1.91 2.65,2.67 3.12,5.95 0.47,3.23 2.4,4.51 3.01,5.9 18.01,40.87 19.82,79.38 41.72,114.04 18.59,29.46 22.54,73.19 47,99.86 13.63,14.88 3.71,4.2 13.54,13.41l6.35 -38.58c37.66,19.23 18.15,6.61 47.45,-4.97 -0.69,-51.22 -36.71,-125.32 -53.36,-169 -14.47,-37.91 -60.97,-128.19 -61.72,-157.07 -0.74,-28.3 53.02,-108.5 66.35,-150.38 36.2,-113.78 60.66,-227.59 99.74,-340.6 19.15,-55.39 39.98,-104.42 57.4,-161.65 17.27,-56.76 33.17,-113.79 52.35,-167.73 20.3,-57.04 54.18,-107.78 17.72,-156.43 -84.07,-0.43 -333.42,141.83 -424.37,193.34l-237.35 142.96c-195.92,107.72 -194.22,175.88 -319.35,126.67 -16.61,-6.54 -29.1,-14.24 -39.05,-18.44 -19.5,-8.24 -28.57,-8.02 -50.18,-11.99 -98.99,-18.2 -206.53,-60.63 -313.59,-59.03 -55.21,0.82 -152.56,-0.59 -206.31,-21.86 -30.05,-11.89 -171.69,6.4 -218.51,10.13 -73.2,5.87 -134.33,29.02 -212.29,30.5 -71.72,1.34 -114.73,38.73 -202,43.96 -65.21,3.91 -153.19,-16.29 -214.69,-23.27 -35.37,-4.02 -81.1,-0.65 -117.14,-5.9l-212.08 -30.65c-38.3,-5.13 -69.87,-18.23 -100.85,-22.65 -32.91,-4.69 -54.18,5.88 -107.51,-3.17 -38.63,-6.57 -78.02,-12.3 -110.1,-5.86 -7.51,70.91 37.88,90.88 61.14,133.31 10.68,19.5 6.8,25.2 22.78,49.94l121.71 151.41c46.37,49.66 104.15,114.91 128.07,171.91 8.31,19.81 13.23,9.31 39.48,37.39 22.64,24.22 43.6,52.11 66.71,70.96 -4.31,73.72 -25.41,88.63 -50.79,148.64 -24.78,58.58 -16.13,79.74 -39.42,139.83 -63.14,162.85 -52.56,99.81 -105.1,295.49l-349.3 -31.43c6.56,59.27 81.98,54.4 140.08,60.92 59.98,6.72 118.73,21.54 178.37,21.98zm1510.85 -263.34l90.48 3.78c37.76,6.88 28.3,32.66 18.44,141.47 -5.56,61.31 -9.79,88.22 -5.4,148.52 4.02,55.57 -12,81.35 18.89,122.34 29.18,38.72 75.98,29.72 105.58,-1.19 10.24,-28.26 21.66,-352.25 28.78,-417.83 78.54,-15.98 210.46,34.78 265.39,2.99 -6.7,-51.29 -68.52,-53.63 -112.66,-65.24 -148.81,-39.13 -172.54,-37.55 -304.59,-8.19 -49.2,10.96 -103.27,26.23 -104.92,73.34zm-784.32 -61.56l91 3.59c-1.5,73.34 5.58,158.39 -0.87,228.98 -4.57,50.07 -18.23,197.5 19.16,222.32 35.48,20.45 72.22,-0.09 85.02,-35.12 28.67,-78.59 -1.33,-379.99 23.6,-404.74 40.58,-23.17 202.39,29.24 256.28,18.03 -3.22,-46.47 -2.14,-25.83 -37.91,-46.11 -40,-22.67 1.27,-14.57 -54.63,-25.99 -64.26,-13.12 -391.28,-100.26 -381.65,39.04zm-744.59 495.01c95.45,-8.57 31.64,-30.51 98.14,-44.81l-53.54 -27.12c20.87,-10.77 35.61,-43.28 41.79,-67.25l24.58 23.05 11.04 -38.67c-40.93,-2.8 -57.61,-15.51 -72.17,31.49l-3.42 -14.6c-9.55,-32.99 -13.19,-27.96 -28.36,-32.2 -0.74,93.29 -43.39,66.39 -18.06,170.11z"/>
 </g>
</svg>
