<?xml version="1.0" encoding="UTF-8"?>
<!DOCTYPE svg PUBLIC "-//W3C//DTD SVG 1.1//EN" "http://www.w3.org/Graphics/SVG/1.1/DTD/svg11.dtd">
<!-- Creator: CorelDRAW 2020 (64-Bit) -->
<svg xmlns="http://www.w3.org/2000/svg" xml:space="preserve" width="3.33333in" height="3.33333in" version="1.1" style="shape-rendering:geometricPrecision; text-rendering:geometricPrecision; image-rendering:optimizeQuality; fill-rule:evenodd; clip-rule:evenodd"
viewBox="0 0 3333.33 3333.33"
 xmlns:xlink="http://www.w3.org/1999/xlink"
 xmlns:xodm="http://www.corel.com/coreldraw/odm/2003">
 <defs>
  <style type="text/css">
   <![CDATA[
    .fil1 {fill:none}
    .fil0 {fill:#4D4D4D}
    .fil2 {fill:#F7F7F7}
   ]]>
  </style>
 </defs>
 <g id="Layer_x0020_1">
  <metadata id="CorelCorpID_0Corel-Layer"/>
  <circle class="fil0" cx="1666.67" cy="1666.67" r="1666.67"/>
  <rect class="fil1" x="-0.01" y="0.01" width="3333.33" height="3333.32"/>
  <path class="fil2" d="M723.1 1990.72c11.42,3.19 14.16,-0.59 21.35,24.24l2.58 10.99c10.96,-35.38 23.51,-25.81 54.32,-23.7l-8.31 29.1 -18.5 -17.35c-4.65,18.05 -15.74,42.52 -31.45,50.62l40.3 20.42c-50.05,10.76 -2.02,27.28 -73.87,33.72 -71.41,4.97 -145.32,27.59 -211.84,52.2 -11.59,4.29 -21.95,8.35 -34,13.33 -7.6,3.13 -10.25,3.33 -16.09,7.86 -11.59,9 -5.05,0.57 -10.91,13.59 27.24,10.74 245.31,-57.17 299.25,-61.63 14.05,17.67 28.98,39.67 44.8,55.51 17.17,17.2 34.84,33.81 43.13,62.85 -59.43,8.17 -129.44,42.09 -181.95,68.87 -25.79,13.14 -40.55,20.22 -43.88,50.84 31.61,-4.17 17.33,-2.93 37.59,-20.2 22.16,-18.87 85.3,-42.41 114.03,-52.41 102.72,-35.73 86.79,-45.57 143.83,24.9 52.29,64.6 111.15,115.69 166.46,177.26 22.93,25.53 44.93,28.85 84.56,31.5 -5.95,-26.16 -32.76,-58.9 -47.5,-77.12l-147.37 -215.63c34.04,-6.47 59.15,-5.69 67.43,-36.28 -21.93,-14.5 -67.96,0.07 -97.97,5.69 -13.18,-30.05 -34.09,-47.29 -44.89,-81.12 34.2,-4.66 106.72,6.11 128.67,-7.85 3.71,-60.69 -117.99,-16.48 -152.1,-31.67 -24.87,-23.42 -45.87,-45.45 -23.32,-91.33 24.58,0.4 56.53,10.56 81.82,16.71l63.95 13.14c6.78,0.04 16.5,3.82 23.39,-6.59 10.61,-29.89 -34.89,-30.95 -63.33,-38.09 -29.83,-7.47 -64.4,-19.09 -91.2,-22.8 21.28,-78.39 57.57,-165.41 77.73,-232.96 4.93,-16.5 6.28,-32.79 11.04,-49.83 13.26,-47.34 29.63,-38.51 43.94,-67.73l3.91 -9.97c0.51,-1.26 1.03,-3.6 1.84,-5.24 9.9,32.94 52.85,39.94 82.53,36.78 7.6,-34.78 -16.36,-49.05 -33.83,-75.31 -45.05,-67.76 -100.92,-108.33 -159.19,-185.05 -34.79,-45.79 -63.54,-89.28 -97.44,-132.77 -17.86,-22.93 -96.99,-109.17 -98.83,-123.59 17.48,-14.36 19.91,-2.1 48.95,0.23 121.17,9.74 73.38,5.46 195.9,29.8l340.38 26.6c92.26,0.76 99.62,102.27 137.99,172.36 12.73,23.24 13.05,30.9 20.51,58.86 9.8,36.73 14.54,94.89 50.96,110.17l32.91 -184.5c0.86,-31.14 23.51,-160.59 32.39,-185.98 14.3,-11.59 33.33,-16.44 55.52,-16.94 2.15,65.41 17.55,390.2 48.41,426.87 35.64,-11.82 48.71,-52.15 64.07,-86.48 17.68,-39.52 36.58,-62.61 51.34,-100.86 25.72,-66.63 48.87,-170.86 66.97,-244.8l53.67 6.87c11.06,92.44 -4.31,365.29 37.6,420.09 28.03,-3.03 45.76,-46.18 59.74,-73.05 28.02,-53.78 66.86,-122.07 86.98,-180.23 20.81,-60.19 15.26,-132.06 88.28,-91.48 44.47,24.71 14.48,12.65 33.06,43.08 43.28,-8.53 85.4,-27.44 125.77,-49.62 32.55,-17.91 29.14,-32.71 69.45,-56.57 17.4,-10.31 21.62,-16.47 38.77,-27.23 30.98,-19.42 40.85,-13.85 74.52,-38.52 30.41,-22.29 69.97,-33.74 101.09,-54.33l54.76 -40.71c11.3,-8.66 126.72,-87.07 146.64,-84.15 15.2,2.21 3.4,-2.35 12.6,5.93 8.41,22.3 -42.04,160.82 -51.99,186.75 -11.37,29.62 -20.51,70.05 -32.02,97.04 -14.16,33.22 -23.76,28.92 -39.97,87.22 -28.11,101.12 -32.57,78.33 -52.96,130.97 -17.82,45.98 -101.07,199.66 -88.7,229.5 3.28,7.91 35.2,33.26 44.13,31.96 20.12,-12.45 31.55,-31.74 46.61,-49.97 0.88,1.44 2,2.01 2.35,4.48 0.35,2.43 1.8,3.39 2.26,4.44 13.55,30.76 14.92,59.74 31.4,85.83 13.99,22.18 16.96,55.09 35.37,75.17 10.26,11.2 2.8,3.16 10.19,10.09l4.78 -29.04c28.34,14.47 13.66,4.97 35.71,-3.74 -0.52,-38.56 -27.63,-94.32 -40.16,-127.2 -10.89,-28.53 -45.89,-96.48 -46.46,-118.22 -0.56,-21.3 39.91,-81.66 49.94,-113.19 27.25,-85.63 45.66,-171.3 75.07,-256.36 14.41,-41.69 30.09,-78.59 43.2,-121.66 13,-42.72 24.96,-85.65 39.4,-126.25 15.28,-42.93 40.78,-81.12 13.33,-117.74 -63.28,-0.32 -250.95,106.75 -319.41,145.52l-178.65 107.6c-147.46,81.08 -146.19,132.38 -240.37,95.35 -12.5,-4.92 -21.91,-10.72 -29.39,-13.88 -14.68,-6.2 -21.5,-6.04 -37.77,-9.02 -74.51,-13.7 -155.45,-45.63 -236.04,-44.43 -41.56,0.62 -114.83,-0.44 -155.28,-16.46 -22.61,-8.94 -129.23,4.82 -164.46,7.63 -55.1,4.42 -101.11,21.84 -159.79,22.95 -53.98,1.01 -86.35,29.15 -152.04,33.09 -49.08,2.94 -115.3,-12.26 -161.59,-17.52 -26.62,-3.03 -61.04,-0.49 -88.17,-4.44l-159.63 -23.07c-28.83,-3.85 -52.59,-13.72 -75.91,-17.05 -24.77,-3.54 -40.78,4.43 -80.92,-2.38 -29.08,-4.94 -58.73,-9.26 -82.87,-4.41 -5.65,53.37 28.51,68.4 46.02,100.34 8.04,14.68 5.12,18.97 17.15,37.59l91.61 113.96c34.9,37.37 78.39,86.49 96.4,129.39 6.26,14.91 9.96,7 29.72,28.14 17.04,18.23 32.82,39.23 50.21,53.42 -3.24,55.48 -19.12,66.71 -38.23,111.87 -18.65,44.09 -12.14,60.02 -29.67,105.25 -47.52,122.57 -39.56,75.13 -79.11,222.41l-262.91 -23.65c4.94,44.61 61.7,40.95 105.44,45.85 45.15,5.06 89.37,16.21 134.25,16.54zm1137.17 -198.21l68.11 2.85c28.43,5.18 21.3,24.58 13.88,106.48 -4.19,46.15 -7.37,66.4 -4.06,111.79 3.02,41.83 -9.03,61.23 14.22,92.08 21.96,29.14 57.19,22.37 79.47,-0.89 7.71,-21.27 16.3,-265.13 21.66,-314.49 59.11,-12.03 158.41,26.18 199.76,2.25 -5.05,-38.6 -51.57,-40.37 -84.8,-49.1 -112.01,-29.45 -129.87,-28.26 -229.26,-6.16 -37.03,8.24 -77.72,19.74 -78.97,55.2zm-590.33 -46.33l68.5 2.7c-1.13,55.2 4.2,119.22 -0.65,172.35 -3.44,37.69 -13.72,148.65 14.43,167.33 26.7,15.39 54.36,-0.06 63.99,-26.43 21.58,-59.15 -1,-286.01 17.76,-304.64 30.55,-17.44 152.33,22.01 192.89,13.57 -2.42,-34.98 -1.61,-19.44 -28.53,-34.71 -30.11,-17.06 0.95,-10.96 -41.12,-19.56 -48.37,-9.88 -294.51,-75.46 -287.26,29.39zm-560.43 372.57c71.85,-6.44 23.81,-22.96 73.87,-33.72l-40.3 -20.42c15.71,-8.1 26.81,-32.57 31.45,-50.62l18.5 17.35 8.31 -29.1c-30.81,-2.11 -43.36,-11.68 -54.32,23.7l-2.58 -10.99c-7.19,-24.83 -9.93,-21.05 -21.35,-24.24 -0.56,70.22 -32.66,49.97 -13.59,128.03z"/>
 </g>
</svg>
